<svg xmlns="http://www.w3.org/2000/svg" width="1200" height="630" viewBox="0 0 1200 630" fill="none">
  <rect width="1200" height="630" fill="#0b0b0c"/>
  <circle cx="1040" cy="90" r="220" fill="#F4B942" fill-opacity="0.08"/>
  <circle cx="120" cy="560" r="180" fill="#F4B942" fill-opacity="0.06"/>
  <rect x="90" y="90" width="64" height="64" rx="18" fill="#F4B942"/>
  <path d="M110 132V108h9.4c4.4 0 7.4 2.7 7.4 6.8 0 3-1.7 5.2-4.4 6.2L128 132h-6.3l-4.6-6h-2v6h-5Zm5-9.6h4.1c2 0 3.2-1.1 3.2-2.8s-1.2-2.8-3.2-2.8H115v5.6Z" fill="#0b0b0c"/>
  <text x="90" y="230" font-family="Arial, sans-serif" font-size="64" font-weight="700" fill="#f5f5f4">Ranjith</text>
  <text x="90" y="280" font-family="Arial, sans-serif" font-size="30" fill="#b4b4b0">Senior Software Developer</text>
  <text x="90" y="340" font-family="Arial, sans-serif" font-size="22" fill="#8a8a86">React · TypeScript · Node.js · Full-Stack</text>
</svg>
